# xmcd CD database file generated by OrangeCD 6.4
#
# Track frame offsets:
#	150
#	16164
#	38711
#	59644
#	75167
#	95382
#	119602
#	143359
#	159020
#	182589
#	200410
#	218950
#	239891
#	256422
#	263617
#	276384
#	298454
#
# Disc length: 4266 seconds
#
# Revision: 0
# Processed by: cddbd v1.5.2PL0 Copyright (c) Steve Scherf et al.
# Submitted via: OrangeCD 6.4
#
DISCID=f410a811
DTITLE=Eli Cook - Static in the Blood
DYEAR=2009
DGENRE=
TTITLE0=Hold 'em Up High
TTITLE1=Body of Water
TTITLE2=Silver
TTITLE3=Early Grave
TTITLE4=Static in the Blood
TTITLE5=Into the Sun
TTITLE6=Sister Morphine
TTITLE7=Shan Gri La
TTITLE8=Prophets and Kings
TTITLE9=Nobody But the Babe
TTITLE10=Hard to FInd
TTITLE11=Sonnet
TTITLE12=Sangria
TTITLE13=Interlude in B
TTITLE14=Three Little Birds
TTITLE15=El Camino
TTITLE16=Piece of Me
EXTD=
EXTT0=
EXTT1=
EXTT2=
EXTT3=
EXTT4=
EXTT5=
EXTT6=
EXTT7=
EXTT8=
EXTT9=
EXTT10=
EXTT11=
EXTT12=
EXTT13=
EXTT14=
EXTT15=
EXTT16=
PLAYORDER=
